<?xml version="1.0" encoding="UTF-8"?>
<svg xmlns="http://www.w3.org/2000/svg" xmlns:xlink="http://www.w3.org/1999/xlink" width="100px" height="100px" viewBox="0 0 100 100" version="1.1">
<g id="surface562463">
<path style=" stroke:none;fill-rule:nonzero;fill:rgb(81.176471%,84.705882%,86.27451%);fill-opacity:1;" d="M 62.5 27.082031 L 37.5 27.082031 L 22.917969 50 L 37.5 72.917969 L 62.5 72.917969 L 77.082031 50 Z M 50 60.417969 C 44.167969 60.417969 39.582031 55.832031 39.582031 50 C 39.582031 44.167969 44.167969 39.582031 50 39.582031 C 55.832031 39.582031 60.417969 44.167969 60.417969 50 C 60.417969 55.832031 55.832031 60.417969 50 60.417969 Z M 50 60.417969 "/>
<path style=" stroke:none;fill-rule:nonzero;fill:rgb(12.941176%,58.823529%,95.294118%);fill-opacity:1;" d="M 72.5 15 C 71.457031 13.542969 69.792969 12.5 67.917969 12.5 L 32.082031 12.5 C 30.207031 12.5 28.542969 13.542969 27.5 15 L 15.417969 34.792969 L 25 50 L 38.125 29.167969 L 81.042969 29.167969 Z M 33.332031 22.917969 C 32.082031 22.917969 31.25 22.082031 31.25 20.832031 C 31.25 19.582031 32.082031 18.75 33.332031 18.75 C 34.582031 18.75 35.417969 19.582031 35.417969 20.832031 C 35.417969 22.082031 34.582031 22.917969 33.332031 22.917969 Z M 66.667969 22.917969 C 65.417969 22.917969 64.582031 22.082031 64.582031 20.832031 C 64.582031 19.582031 65.417969 18.75 66.667969 18.75 C 67.917969 18.75 68.75 19.582031 68.75 20.832031 C 68.75 22.082031 67.917969 22.917969 66.667969 22.917969 Z M 66.667969 22.917969 "/>
<path style=" stroke:none;fill-rule:nonzero;fill:rgb(100%,75.686275%,2.745098%);fill-opacity:1;" d="M 38.125 70.832031 L 15.417969 35 L 7.917969 47.292969 C 6.875 48.957031 6.875 51.25 7.917969 52.917969 L 27.5 85 C 28.542969 86.667969 30.207031 87.5 32.082031 87.5 L 51.042969 87.5 L 61.667969 70.832031 Z M 16.667969 52.082031 C 15.417969 52.082031 14.582031 51.25 14.582031 50 C 14.582031 48.75 15.417969 47.917969 16.667969 47.917969 C 17.917969 47.917969 18.75 48.75 18.75 50 C 18.75 51.25 17.917969 52.082031 16.667969 52.082031 Z M 33.332031 81.25 C 32.082031 81.25 31.25 80.417969 31.25 79.167969 C 31.25 77.917969 32.082031 77.082031 33.332031 77.082031 C 34.582031 77.082031 35.417969 77.917969 35.417969 79.167969 C 35.417969 80.417969 34.582031 81.25 33.332031 81.25 Z M 33.332031 81.25 "/>
<path style=" stroke:none;fill-rule:nonzero;fill:rgb(9.803922%,46.27451%,82.352941%);fill-opacity:1;" d="M 15.417969 35 L 25 50 L 30 42.292969 L 17.707031 31.25 Z M 15.417969 35 "/>
<path style=" stroke:none;fill-rule:nonzero;fill:rgb(97.647059%,65.882353%,14.509804%);fill-opacity:1;" d="M 51.25 87.5 L 61.875 70.832031 L 51.875 70.832031 L 47.082031 87.5 Z M 51.25 87.5 "/>
<path style=" stroke:none;fill-rule:nonzero;fill:rgb(86.666667%,17.254902%,0%);fill-opacity:1;" d="M 92.082031 47.292969 L 81.042969 29.167969 L 61.875 29.167969 L 75 50 L 51.25 87.5 L 67.917969 87.5 C 69.792969 87.5 71.457031 86.457031 72.5 85 L 92.292969 52.917969 C 93.332031 51.042969 93.332031 48.957031 92.082031 47.292969 Z M 66.667969 81.25 C 65.417969 81.25 64.582031 80.417969 64.582031 79.167969 C 64.582031 77.917969 65.417969 77.082031 66.667969 77.082031 C 67.917969 77.082031 68.75 77.917969 68.75 79.167969 C 68.75 80.417969 67.917969 81.25 66.667969 81.25 Z M 83.332031 52.082031 C 82.082031 52.082031 81.25 51.25 81.25 50 C 81.25 48.75 82.082031 47.917969 83.332031 47.917969 C 84.582031 47.917969 85.417969 48.75 85.417969 50 C 85.417969 51.25 84.582031 52.082031 83.332031 52.082031 Z M 83.332031 52.082031 "/>
<path style=" stroke:none;fill-rule:nonzero;fill:rgb(74.901961%,21.176471%,4.705882%);fill-opacity:1;" d="M 81.042969 29.167969 L 61.875 29.167969 L 67.082031 37.292969 L 83.542969 33.332031 Z M 81.042969 29.167969 "/>
</g>
</svg>
