<?xml version="1.0" encoding="UTF-8"?>
<svg xmlns="http://www.w3.org/2000/svg" xmlns:xlink="http://www.w3.org/1999/xlink" width="100px" height="100px" viewBox="0 0 100 100" version="1.1">
<g id="surface563386">
<path style=" stroke:none;fill-rule:nonzero;fill:rgb(95.686275%,31.764706%,11.764706%);fill-opacity:1;" d="M 87.917969 46.042969 L 53.957031 12.082031 C 52.917969 11.042969 51.457031 10.417969 50 10.417969 C 48.542969 10.417969 47.082031 11.042969 46.042969 12.082031 L 38.75 19.375 L 47.292969 27.917969 C 48.125 27.5 48.957031 27.292969 50 27.292969 C 53.542969 27.292969 56.25 30 56.25 33.542969 C 56.25 34.582031 56.042969 35.417969 55.625 36.25 L 63.957031 44.582031 C 64.792969 44.167969 65.625 43.957031 66.667969 43.957031 C 70.207031 43.957031 72.917969 46.667969 72.917969 50.207031 C 72.917969 53.75 70.207031 56.457031 66.667969 56.457031 C 63.125 56.457031 60.417969 53.75 60.417969 50.207031 C 60.417969 49.167969 60.625 48.332031 61.042969 47.5 L 52.707031 39.167969 C 52.5 39.167969 52.292969 39.375 52.082031 39.375 L 52.082031 61.042969 C 54.582031 61.875 56.25 64.167969 56.25 66.875 C 56.25 70.417969 53.542969 73.125 50 73.125 C 46.457031 73.125 43.75 70.417969 43.75 66.875 C 43.75 64.167969 45.417969 61.875 47.917969 61.042969 L 47.917969 39.167969 C 45.417969 38.332031 43.75 36.042969 43.75 33.332031 C 43.75 32.292969 43.957031 31.457031 44.375 30.625 L 35.832031 22.082031 L 12.082031 46.042969 C 11.042969 47.082031 10.417969 48.542969 10.417969 50 C 10.417969 51.457031 11.042969 52.917969 12.082031 53.957031 L 46.042969 87.917969 C 47.082031 88.957031 48.542969 89.582031 50 89.582031 C 51.457031 89.582031 52.917969 88.957031 53.957031 87.917969 L 87.917969 53.957031 C 88.957031 52.917969 89.582031 51.457031 89.582031 50 C 89.582031 48.542969 88.957031 47.082031 87.917969 46.042969 Z M 87.917969 46.042969 "/>
</g>
</svg>
