<?xml version="1.0" encoding="UTF-8"?>
<svg xmlns="http://www.w3.org/2000/svg" xmlns:xlink="http://www.w3.org/1999/xlink" width="100px" height="100px" viewBox="0 0 100 100" version="1.1">
<g id="surface563394">
<path style=" stroke:none;fill-rule:nonzero;fill:rgb(27.058824%,35.294118%,39.215686%);fill-opacity:1;" d="M 83.957031 32.707031 C 85.207031 29.167969 86.457031 22.292969 83.125 14.582031 C 73.75 14.582031 65.832031 21.25 64.582031 22.5 C 60 21.457031 55 21.042969 50 21.042969 C 44.792969 21.042969 39.792969 21.667969 35 22.707031 C 28.542969 16.042969 20 14.582031 16.667969 14.582031 C 16.667969 14.582031 14.792969 18.332031 14.792969 25 C 14.792969 29.167969 15.832031 31.667969 16.457031 32.917969 C 11.457031 38.125 8.332031 45.207031 8.332031 54.375 C 8.332031 77.707031 23.125 85.625 50 85.625 C 76.875 85.625 91.667969 77.707031 91.667969 54.375 C 91.667969 44.792969 88.75 37.707031 83.957031 32.707031 Z M 83.957031 32.707031 "/>
<path style=" stroke:none;fill-rule:nonzero;fill:rgb(100%,80%,73.72549%);fill-opacity:1;" d="M 50 81.25 C 32.917969 81.25 18.75 78.332031 18.75 62.5 C 18.75 56.457031 22.082031 53.125 24.375 51.042969 C 29.582031 46.457031 38.332031 48.542969 50 48.542969 C 58.542969 48.542969 65.832031 47.082031 71.667969 48.957031 C 77.5 50.832031 81.25 56.25 81.25 62.082031 C 81.25 78.542969 72.917969 81.25 50 81.25 Z M 50 81.25 "/>
<path style=" stroke:none;fill-rule:nonzero;fill:rgb(84.705882%,26.27451%,8.235294%);fill-opacity:1;" d="M 52.082031 70.832031 C 52.082031 72.082031 51.25 72.917969 50 72.917969 C 48.75 72.917969 47.917969 72.082031 47.917969 70.832031 C 47.917969 69.582031 48.75 68.75 50 68.75 C 51.25 68.75 52.082031 69.582031 52.082031 70.832031 Z M 55.207031 76.042969 C 55.625 75.625 55.625 75 55.207031 74.582031 C 54.792969 74.167969 54.167969 74.167969 53.75 74.582031 C 51.875 76.457031 48.332031 76.457031 46.457031 74.582031 C 46.042969 74.167969 45.417969 74.167969 45 74.582031 C 44.582031 75 44.582031 75.625 45 76.042969 C 46.457031 77.5 48.125 78.125 50.207031 78.125 C 52.292969 78.125 53.75 77.292969 55.207031 76.042969 Z M 55.207031 76.042969 "/>
<path style=" stroke:none;fill-rule:nonzero;fill:rgb(100%,100%,100%);fill-opacity:1;" d="M 39.582031 61.457031 C 39.582031 66.667969 36.875 70.832031 33.332031 70.832031 C 29.792969 70.832031 27.082031 66.667969 27.082031 61.457031 C 27.082031 56.25 29.792969 52.082031 33.332031 52.082031 C 36.875 52.082031 39.582031 56.25 39.582031 61.457031 Z M 66.667969 52.082031 C 63.125 52.082031 60.417969 56.25 60.417969 61.457031 C 60.417969 66.667969 63.125 70.832031 66.667969 70.832031 C 70.207031 70.832031 72.917969 66.667969 72.917969 61.457031 C 72.917969 56.25 70.207031 52.082031 66.667969 52.082031 Z M 66.667969 52.082031 "/>
<path style=" stroke:none;fill-rule:nonzero;fill:rgb(42.745098%,29.803922%,25.490196%);fill-opacity:1;" d="M 70.832031 62.5 C 70.832031 66.042969 68.957031 68.75 66.667969 68.75 C 64.375 68.75 62.5 66.042969 62.5 62.5 C 62.5 62.082031 62.5 61.457031 62.707031 61.042969 C 62.917969 61.875 63.75 62.5 64.582031 62.5 C 65.832031 62.5 66.667969 61.667969 66.667969 60.417969 C 66.667969 59.167969 65.832031 58.332031 64.582031 58.332031 C 64.167969 58.332031 63.75 58.542969 63.332031 58.75 C 64.167969 57.292969 65.207031 56.25 66.667969 56.25 C 68.957031 56.25 70.832031 58.957031 70.832031 62.5 Z M 33.332031 56.25 C 31.875 56.25 30.832031 57.292969 30 58.75 C 30.417969 58.542969 30.832031 58.332031 31.25 58.332031 C 32.5 58.332031 33.332031 59.167969 33.332031 60.417969 C 33.332031 61.667969 32.5 62.5 31.25 62.5 C 30.417969 62.5 29.582031 61.875 29.375 61.042969 C 29.375 61.457031 29.167969 62.082031 29.167969 62.5 C 29.167969 66.042969 31.042969 68.75 33.332031 68.75 C 35.625 68.75 37.5 66.042969 37.5 62.5 C 37.5 58.957031 35.625 56.25 33.332031 56.25 Z M 33.332031 56.25 "/>
</g>
</svg>
