<?xml version="1.0" encoding="utf-8"?>
<!-- Generator: Adobe Illustrator 23.0.3, SVG Export Plug-In . SVG Version: 6.00 Build 0)  -->
<svg version="1.1" id="Warstwa_1" xmlns="http://www.w3.org/2000/svg" xmlns:xlink="http://www.w3.org/1999/xlink" x="0px" y="0px"
	 viewBox="0 0 250 300" style="enable-background:new 0 0 250 300;" xml:space="preserve">
<style type="text/css">
	.st0{fill:url(#SVGID_1_);}
	.st1{fill:#934DD6;}
	.st2{fill:#E3EAFF;}
	.st3{fill:#6DB8FF;}
	.st4{fill:#2F6DFF;}
	.st5{fill:#C8D6F2;}
	.st6{fill:#00CCFF;}
	.st7{fill:#FF56A9;}
	.st8{fill:#FFC359;}
	.st9{fill:#FFCB1D;}
	.st10{fill:#FF4DD1;}
	.st11{fill:#F9FBFC;}
</style>
<g>
	<g>
		<linearGradient id="SVGID_1_" gradientUnits="userSpaceOnUse" x1="124.4211" y1="73.3429" x2="121.9211" y2="345.3431">
			<stop  offset="0" style="stop-color:#933DD6"/>
			<stop  offset="1" style="stop-color:#5B2CE5"/>
		</linearGradient>
		<path class="st0" d="M129.88,49.34c0,0-17.05-8.71-30.75,18.69s-18.27,19.79-53.28,51s-31.97,68.51,0,87.54
			c31.97,19.03,57.85-3.81,86.78,29.69s76.88,19.03,86.78-22.07c9.9-41.1-19.79-70.79,0.76-110.37
			c20.55-39.58-7.61-46.43-35.78-47.96S140.43,55.29,129.88,49.34z"/>
		<path class="st1" d="M148.82,38.77c0,4.05-3.28,7.33-7.33,7.33c-4.05,0-7.33-3.28-7.33-7.33s3.28-7.33,7.33-7.33
			C145.53,31.44,148.82,34.72,148.82,38.77z"/>
		<path class="st1" d="M131.32,241.35c0,1.84-1.49,3.33-3.33,3.33c-1.84,0-3.33-1.49-3.33-3.33c0-1.84,1.49-3.33,3.33-3.33
			C129.82,238.02,131.32,239.51,131.32,241.35z"/>
	</g>
	<g>
		<path class="st1" d="M148.82,38.77c0,4.05-3.28,7.33-7.33,7.33c-4.05,0-7.33-3.28-7.33-7.33s3.28-7.33,7.33-7.33
			C145.53,31.44,148.82,34.72,148.82,38.77z"/>
	</g>
	<g>
		<g>
			<path class="st2" d="M185.48,182.44H70.15c-3.13,0-5.67-2.54-5.67-5.67V98.1c0-3.13,2.54-5.67,5.67-5.67h115.33
				c3.13,0,5.67,2.54,5.67,5.67v78.67C191.15,179.9,188.61,182.44,185.48,182.44z"/>
			<path class="st3" d="M184.99,181.25H70.64c-2.48,0-4.49-2.01-4.49-4.49V98.11c0-2.48,2.01-4.49,4.49-4.49h114.35
				c2.48,0,4.49,2.01,4.49,4.49v78.65C189.48,179.24,187.47,181.25,184.99,181.25z"/>
			<path class="st4" d="M181.38,173.52H74.25c-1.53,0-2.77-1.24-2.77-2.77v-70.24c0-1.53,1.24-2.77,2.77-2.77h107.13
				c1.53,0,2.77,1.24,2.77,2.77v70.24C184.15,172.28,182.91,173.52,181.38,173.52z"/>
			<path class="st2" d="M61.41,177.77c-0.36,0.67-0.59,1.43-0.59,2.25c0,2.62,2.13,4.75,4.75,4.75h124.5c2.62,0,4.75-2.13,4.75-4.75
				c0-0.82-0.23-1.58-0.59-2.25H61.41z"/>
		</g>
		<path class="st5" d="M61.41,182.27c0.8,1.48,2.35,2.5,4.16,2.5h124.5c1.8,0,3.36-1.02,4.16-2.5H61.41z"/>
	</g>
	<path class="st6" d="M85.84,107.14h-8.39c-0.45,0-0.81-0.36-0.81-0.81l0,0c0-0.45,0.36-0.81,0.81-0.81h8.39
		c0.45,0,0.81,0.36,0.81,0.81l0,0C86.65,106.77,86.29,107.14,85.84,107.14z"/>
	<path class="st2" d="M149.59,107.14h-8.39c-0.45,0-0.81-0.36-0.81-0.81l0,0c0-0.45,0.36-0.81,0.81-0.81h8.39
		c0.45,0,0.81,0.36,0.81,0.81l0,0C150.4,106.77,150.04,107.14,149.59,107.14z"/>
	<path class="st6" d="M137.76,107.14H89.79c-0.45,0-0.81-0.36-0.81-0.81l0,0c0-0.45,0.36-0.81,0.81-0.81h47.97
		c0.45,0,0.81,0.36,0.81,0.81l0,0C138.57,106.77,138.2,107.14,137.76,107.14z"/>
	<path class="st7" d="M105.09,110.47h-15.3c-0.45,0-0.81-0.36-0.81-0.81l0,0c0-0.45,0.36-0.81,0.81-0.81h15.3
		c0.45,0,0.81,0.36,0.81,0.81l0,0C105.9,110.11,105.54,110.47,105.09,110.47z"/>
	<path class="st2" d="M130.26,110.47h-22.05c-0.45,0-0.81-0.36-0.81-0.81l0,0c0-0.45,0.36-0.81,0.81-0.81h22.05
		c0.45,0,0.81,0.36,0.81,0.81l0,0C131.07,110.11,130.7,110.47,130.26,110.47z"/>
	<path class="st2" d="M137.78,110.47h-5.07c-0.45,0-0.81-0.36-0.81-0.81l0,0c0-0.45,0.36-0.81,0.81-0.81h5.07
		c0.45,0,0.81,0.36,0.81,0.81l0,0C138.59,110.11,138.22,110.47,137.78,110.47z"/>
	<path class="st2" d="M137.76,126.72H89.79c-0.45,0-0.81-0.36-0.81-0.81l0,0c0-0.45,0.36-0.81,0.81-0.81h47.97
		c0.45,0,0.81,0.36,0.81,0.81l0,0C138.57,126.36,138.2,126.72,137.76,126.72z"/>
	<path class="st6" d="M85.84,130.06h-8.39c-0.45,0-0.81-0.36-0.81-0.81l0,0c0-0.45,0.36-0.81,0.81-0.81h8.39
		c0.45,0,0.81,0.36,0.81,0.81l0,0C86.65,129.69,86.29,130.06,85.84,130.06z"/>
	<path class="st6" d="M149.59,130.06h-8.39c-0.45,0-0.81-0.36-0.81-0.81l0,0c0-0.45,0.36-0.81,0.81-0.81h8.39
		c0.45,0,0.81,0.36,0.81,0.81l0,0C150.4,129.69,150.04,130.06,149.59,130.06z"/>
	<path class="st2" d="M105.09,130.06h-15.3c-0.45,0-0.81-0.36-0.81-0.81l0,0c0-0.45,0.36-0.81,0.81-0.81h15.3
		c0.45,0,0.81,0.36,0.81,0.81l0,0C105.9,129.69,105.54,130.06,105.09,130.06z"/>
	<path class="st7" d="M130.26,130.06h-22.05c-0.45,0-0.81-0.36-0.81-0.81l0,0c0-0.45,0.36-0.81,0.81-0.81h22.05
		c0.45,0,0.81,0.36,0.81,0.81l0,0C131.07,129.69,130.7,130.06,130.26,130.06z"/>
	<path class="st7" d="M137.78,130.06h-5.07c-0.45,0-0.81-0.36-0.81-0.81l0,0c0-0.45,0.36-0.81,0.81-0.81h5.07
		c0.45,0,0.81,0.36,0.81,0.81l0,0C138.59,129.69,138.22,130.06,137.78,130.06z"/>
	<path class="st7" d="M149.65,113.81H89.79c-0.45,0-0.81-0.36-0.81-0.81l0,0c0-0.45,0.36-0.81,0.81-0.81h59.86
		c0.45,0,0.81,0.36,0.81,0.81l0,0C150.46,113.45,150.1,113.81,149.65,113.81z"/>
	<path class="st6" d="M137.36,117.15h-14.44c-0.33,0-0.6-0.27-0.6-0.6v-0.41c0-0.33,0.27-0.6,0.6-0.6h14.44c0.33,0,0.6,0.27,0.6,0.6
		v0.41C137.96,116.88,137.69,117.15,137.36,117.15z"/>
	<path class="st2" d="M109.67,117.15H89.79c-0.45,0-0.81-0.36-0.81-0.81l0,0c0-0.45,0.36-0.81,0.81-0.81h19.89
		c0.45,0,0.81,0.36,0.81,0.81l0,0C110.48,116.78,110.12,117.15,109.67,117.15z"/>
	<path class="st6" d="M120.26,117.15h-7.89c-0.45,0-0.81-0.36-0.81-0.81l0,0c0-0.45,0.36-0.81,0.81-0.81h7.89
		c0.45,0,0.81,0.36,0.81,0.81l0,0C121.07,116.78,120.7,117.15,120.26,117.15z"/>
	<path class="st2" d="M85.84,120.37h-8.39c-0.45,0-0.81-0.36-0.81-0.81l0,0c0-0.45,0.36-0.81,0.81-0.81h8.39
		c0.45,0,0.81,0.36,0.81,0.81l0,0C86.65,120.01,86.29,120.37,85.84,120.37z"/>
	<path class="st2" d="M149.65,120.37H89.79c-0.45,0-0.81-0.36-0.81-0.81l0,0c0-0.45,0.36-0.81,0.81-0.81h59.86
		c0.45,0,0.81,0.36,0.81,0.81l0,0C150.46,120.01,150.1,120.37,149.65,120.37z"/>
	<path class="st2" d="M85.84,133.15h-8.39c-0.45,0-0.81-0.36-0.81-0.81l0,0c0-0.45,0.36-0.81,0.81-0.81h8.39
		c0.45,0,0.81,0.36,0.81,0.81l0,0C86.65,132.78,86.29,133.15,85.84,133.15z"/>
	<path class="st2" d="M143.25,133.15h-20.23c-0.39,0-0.71-0.32-0.71-0.71v-0.2c0-0.39,0.32-0.71,0.71-0.71h20.23
		c0.39,0,0.71,0.32,0.71,0.71v0.2C143.96,132.83,143.64,133.15,143.25,133.15z"/>
	<path class="st2" d="M109.67,133.15H89.79c-0.45,0-0.81-0.36-0.81-0.81l0,0c0-0.45,0.36-0.81,0.81-0.81h19.89
		c0.45,0,0.81,0.36,0.81,0.81l0,0C110.48,132.78,110.12,133.15,109.67,133.15z"/>
	<path class="st2" d="M120.26,133.15h-7.89c-0.45,0-0.81-0.36-0.81-0.81l0,0c0-0.45,0.36-0.81,0.81-0.81h7.89
		c0.45,0,0.81,0.36,0.81,0.81l0,0C121.07,132.78,120.7,133.15,120.26,133.15z"/>
	<path class="st8" d="M85.84,136.37h-8.39c-0.45,0-0.81-0.36-0.81-0.81l0,0c0-0.45,0.36-0.81,0.81-0.81h8.39
		c0.45,0,0.81,0.36,0.81,0.81l0,0C86.65,136.01,86.29,136.37,85.84,136.37z"/>
	<path class="st6" d="M100.15,136.37H89.79c-0.45,0-0.81-0.36-0.81-0.81l0,0c0-0.45,0.36-0.81,0.81-0.81h10.36
		c0.45,0,0.81,0.36,0.81,0.81l0,0C100.96,136.01,100.6,136.37,100.15,136.37z"/>
	<path class="st6" d="M77.46,123.71c-0.45,0-0.81-0.36-0.81-0.81l0,0c0-0.45,0.36-0.81,0.81-0.81h8.39c0.45,0,0.81,0.36,0.81,0.81
		l0,0c0,0.45-0.36,0.81-0.81,0.81"/>
	<path class="st2" d="M146.02,123.71h-22.95c-0.42,0-0.75-0.34-0.75-0.75v-0.11c0-0.42,0.34-0.75,0.75-0.75h22.95
		c0.42,0,0.75,0.34,0.75,0.75v0.11C146.77,123.37,146.44,123.71,146.02,123.71z"/>
	<path class="st8" d="M109.67,123.71H89.79c-0.45,0-0.81-0.36-0.81-0.81l0,0c0-0.45,0.36-0.81,0.81-0.81h19.89
		c0.45,0,0.81,0.36,0.81,0.81l0,0C110.48,123.35,110.12,123.71,109.67,123.71z"/>
	<path class="st8" d="M120.26,123.71h-7.89c-0.45,0-0.81-0.36-0.81-0.81l0,0c0-0.45,0.36-0.81,0.81-0.81h7.89
		c0.45,0,0.81,0.36,0.81,0.81l0,0C121.07,123.35,120.7,123.71,120.26,123.71z"/>
	<path class="st2" d="M145.74,139.91h-4.8c-0.5,0-0.91-0.41-0.91-0.91l0,0c0-0.5,0.41-0.91,0.91-0.91h4.8c0.5,0,0.91,0.41,0.91,0.91
		l0,0C146.65,139.5,146.24,139.91,145.74,139.91z"/>
	<path class="st2" d="M137.76,139.8H89.79c-0.45,0-0.81-0.36-0.81-0.81l0,0c0-0.45,0.36-0.81,0.81-0.81h47.97
		c0.45,0,0.81,0.36,0.81,0.81l0,0C138.57,139.44,138.2,139.8,137.76,139.8z"/>
	<path class="st2" d="M149.59,143.14h-8.39c-0.45,0-0.81-0.36-0.81-0.81l0,0c0-0.45,0.36-0.81,0.81-0.81h8.39
		c0.45,0,0.81,0.36,0.81,0.81l0,0C150.4,142.78,150.04,143.14,149.59,143.14z"/>
	<path class="st2" d="M105.09,143.14h-15.3c-0.45,0-0.81-0.36-0.81-0.81l0,0c0-0.45,0.36-0.81,0.81-0.81h15.3
		c0.45,0,0.81,0.36,0.81,0.81l0,0C105.9,142.78,105.54,143.14,105.09,143.14z"/>
	<path class="st2" d="M130.26,143.14h-22.05c-0.45,0-0.81-0.36-0.81-0.81l0,0c0-0.45,0.36-0.81,0.81-0.81h22.05
		c0.45,0,0.81,0.36,0.81,0.81l0,0C131.07,142.78,130.7,143.14,130.26,143.14z"/>
	<path class="st2" d="M137.78,143.14h-5.07c-0.45,0-0.81-0.36-0.81-0.81l0,0c0-0.45,0.36-0.81,0.81-0.81h5.07
		c0.45,0,0.81,0.36,0.81,0.81l0,0C138.59,142.78,138.22,143.14,137.78,143.14z"/>
	<path class="st2" d="M149.59,159.39h-8.39c-0.45,0-0.81-0.36-0.81-0.81l0,0c0-0.45,0.36-0.81,0.81-0.81h8.39
		c0.45,0,0.81,0.36,0.81,0.81l0,0C150.4,159.02,150.04,159.39,149.59,159.39z"/>
	<path class="st2" d="M137.76,159.39H89.79c-0.45,0-0.81-0.36-0.81-0.81l0,0c0-0.45,0.36-0.81,0.81-0.81h47.97
		c0.45,0,0.81,0.36,0.81,0.81l0,0C138.57,159.02,138.2,159.39,137.76,159.39z"/>
	<path class="st7" d="M85.84,162.72h-8.39c-0.45,0-0.81-0.36-0.81-0.81l0,0c0-0.45,0.36-0.81,0.81-0.81h8.39
		c0.45,0,0.81,0.36,0.81,0.81l0,0C86.65,162.36,86.29,162.72,85.84,162.72z"/>
	<path class="st6" d="M144.42,162.72h-3.47c-0.3,0-0.55-0.24-0.55-0.55v-0.52c0-0.3,0.24-0.55,0.55-0.55h3.47
		c0.3,0,0.55,0.24,0.55,0.55v0.52C144.96,162.48,144.72,162.72,144.42,162.72z"/>
	<path class="st6" d="M105.09,162.72h-15.3c-0.45,0-0.81-0.36-0.81-0.81l0,0c0-0.45,0.36-0.81,0.81-0.81h15.3
		c0.45,0,0.81,0.36,0.81,0.81l0,0C105.9,162.36,105.54,162.72,105.09,162.72z"/>
	<path class="st2" d="M130.26,162.72h-22.05c-0.45,0-0.81-0.36-0.81-0.81l0,0c0-0.45,0.36-0.81,0.81-0.81h22.05
		c0.45,0,0.81,0.36,0.81,0.81l0,0C131.07,162.36,130.7,162.72,130.26,162.72z"/>
	<path class="st6" d="M137.78,162.72h-5.07c-0.45,0-0.81-0.36-0.81-0.81l0,0c0-0.45,0.36-0.81,0.81-0.81h5.07
		c0.45,0,0.81,0.36,0.81,0.81l0,0C138.59,162.36,138.22,162.72,137.78,162.72z"/>
	<path class="st7" d="M85.84,146.48h-8.39c-0.45,0-0.81-0.36-0.81-0.81l0,0c0-0.45,0.36-0.81,0.81-0.81h8.39
		c0.45,0,0.81,0.36,0.81,0.81l0,0C86.65,146.11,86.29,146.48,85.84,146.48z"/>
	<path class="st7" d="M132.9,146.48H89.67c-0.38,0-0.69-0.31-0.69-0.69v-0.24c0-0.38,0.31-0.69,0.69-0.69h43.23
		c0.38,0,0.69,0.31,0.69,0.69v0.24C133.59,146.17,133.28,146.48,132.9,146.48z"/>
	<path class="st2" d="M85.84,149.81h-8.39c-0.45,0-0.81-0.36-0.81-0.81l0,0c0-0.45,0.36-0.81,0.81-0.81h8.39
		c0.45,0,0.81,0.36,0.81,0.81l0,0C86.65,149.45,86.29,149.81,85.84,149.81z"/>
	<path class="st2" d="M149.62,149.81h-24.87c-0.43,0-0.78-0.35-0.78-0.78v-0.05c0-0.43,0.35-0.78,0.78-0.78h24.87
		c0.43,0,0.78,0.35,0.78,0.78v0.05C150.4,149.46,150.05,149.81,149.62,149.81z"/>
	<path class="st2" d="M109.67,149.81H89.79c-0.45,0-0.81-0.36-0.81-0.81l0,0c0-0.45,0.36-0.81,0.81-0.81h19.89
		c0.45,0,0.81,0.36,0.81,0.81l0,0C110.48,149.45,110.12,149.81,109.67,149.81z"/>
	<path class="st2" d="M120.26,149.81h-7.89c-0.45,0-0.81-0.36-0.81-0.81l0,0c0-0.45,0.36-0.81,0.81-0.81h7.89
		c0.45,0,0.81,0.36,0.81,0.81l0,0C121.07,149.45,120.7,149.81,120.26,149.81z"/>
	<path class="st2" d="M85.84,153.04h-8.39c-0.45,0-0.81-0.36-0.81-0.81l0,0c0-0.45,0.36-0.81,0.81-0.81h8.39
		c0.45,0,0.81,0.36,0.81,0.81l0,0C86.65,152.68,86.29,153.04,85.84,153.04z"/>
	<path class="st2" d="M144.38,153.04H89.75c-0.43,0-0.77-0.35-0.77-0.77v-0.07c0-0.43,0.35-0.77,0.77-0.77h54.62
		c0.43,0,0.77,0.35,0.77,0.77v0.07C145.15,152.69,144.8,153.04,144.38,153.04z"/>
	<path class="st2" d="M85.84,165.81h-8.39c-0.45,0-0.81-0.36-0.81-0.81l0,0c0-0.45,0.36-0.81,0.81-0.81h8.39
		c0.45,0,0.81,0.36,0.81,0.81l0,0C86.65,165.45,86.29,165.81,85.84,165.81z"/>
	<path class="st2" d="M149.59,165.81h-26.47c-0.45,0-0.81-0.36-0.81-0.81l0,0c0-0.45,0.36-0.81,0.81-0.81h26.47
		c0.45,0,0.81,0.36,0.81,0.81l0,0C150.4,165.45,150.04,165.81,149.59,165.81z"/>
	<path class="st2" d="M109.67,165.81H89.79c-0.45,0-0.81-0.36-0.81-0.81l0,0c0-0.45,0.36-0.81,0.81-0.81h19.89
		c0.45,0,0.81,0.36,0.81,0.81l0,0C110.48,165.45,110.12,165.81,109.67,165.81z"/>
	<path class="st2" d="M120.26,165.81h-7.89c-0.45,0-0.81-0.36-0.81-0.81l0,0c0-0.45,0.36-0.81,0.81-0.81h7.89
		c0.45,0,0.81,0.36,0.81,0.81l0,0C121.07,165.45,120.7,165.81,120.26,165.81z"/>
	<path class="st8" d="M125.46,169.04H89.61c-0.35,0-0.63-0.28-0.63-0.63v-0.36c0-0.35,0.28-0.63,0.63-0.63h35.85
		c0.35,0,0.63,0.28,0.63,0.63v0.36C126.09,168.76,125.81,169.04,125.46,169.04z"/>
	<path class="st7" d="M147.44,156.38h-24.35c-0.43,0-0.78-0.35-0.78-0.78v-0.06c0-0.43,0.35-0.78,0.78-0.78h24.35
		c0.43,0,0.78,0.35,0.78,0.78v0.06C148.21,156.03,147.86,156.38,147.44,156.38z"/>
	<path class="st8" d="M109.67,156.38H89.79c-0.45,0-0.81-0.36-0.81-0.81l0,0c0-0.45,0.36-0.81,0.81-0.81h19.89
		c0.45,0,0.81,0.36,0.81,0.81l0,0C110.48,156.01,110.12,156.38,109.67,156.38z"/>
	<path class="st8" d="M120.26,156.38h-7.89c-0.45,0-0.81-0.36-0.81-0.81l0,0c0-0.45,0.36-0.81,0.81-0.81h7.89
		c0.45,0,0.81,0.36,0.81,0.81l0,0C121.07,156.01,120.7,156.38,120.26,156.38z"/>
	<g>
		<path class="st2" d="M194.9,136.94h-35.5c-0.97,0-1.75-0.78-1.75-1.75v-50.5c0-0.97,0.78-1.75,1.75-1.75h35.5
			c0.97,0,1.75,0.78,1.75,1.75v50.5C196.65,136.15,195.86,136.94,194.9,136.94z"/>
		<path class="st3" d="M194.9,82.94h-35.5c-0.97,0-1.75,0.78-1.75,1.75v6.25h39v-6.25C196.65,83.72,195.86,82.94,194.9,82.94z"/>
		<path class="st2" d="M186.5,88.29H161c-0.6,0-1.08-0.49-1.08-1.08l0,0c0-0.6,0.49-1.08,1.08-1.08h25.5c0.6,0,1.08,0.49,1.08,1.08
			l0,0C187.59,87.81,187.1,88.29,186.5,88.29z"/>
	</g>
	<rect x="164.9" y="104.4" class="st3" width="4.13" height="7.75"/>
	<rect x="171.65" y="98.9" class="st3" width="4.13" height="13.25"/>
	<rect x="178.4" y="97.27" class="st3" width="4.13" height="14.88"/>
	<rect x="185.15" y="96.4" class="st3" width="4.13" height="15.75"/>
	<g>
		<path class="st3" d="M179.52,119.52h-4.63c-0.83,0-1.5-0.67-1.5-1.5l0,0c0-0.83,0.67-1.5,1.5-1.5h4.63c0.83,0,1.5,0.67,1.5,1.5
			l0,0C181.02,118.85,180.35,119.52,179.52,119.52z"/>
		<g>
			<path class="st7" d="M169.27,128.15h-4.63c-0.83,0-1.5-0.67-1.5-1.5l0,0c0-0.83,0.67-1.5,1.5-1.5h4.63c0.83,0,1.5,0.67,1.5,1.5
				l0,0C170.77,127.47,170.1,128.15,169.27,128.15z"/>
			<path class="st8" d="M179.52,128.15h-4.63c-0.83,0-1.5-0.67-1.5-1.5l0,0c0-0.83,0.67-1.5,1.5-1.5h4.63c0.83,0,1.5,0.67,1.5,1.5
				l0,0C181.02,127.47,180.35,128.15,179.52,128.15z"/>
			<path class="st7" d="M189.77,128.15h-4.63c-0.83,0-1.5-0.67-1.5-1.5l0,0c0-0.83,0.67-1.5,1.5-1.5h4.63c0.83,0,1.5,0.67,1.5,1.5
				l0,0C191.27,127.47,190.6,128.15,189.77,128.15z"/>
		</g>
		<path class="st3" d="M177.15,124.4L177.15,124.4c-0.17,0-0.31-0.14-0.31-0.31v-3.38c0-0.17,0.14-0.31,0.31-0.31l0,0
			c0.17,0,0.31,0.14,0.31,0.31v3.38C177.46,124.26,177.32,124.4,177.15,124.4z"/>
		<path class="st3" d="M173.02,126.65L173.02,126.65c0,0.17-0.14,0.31-0.31,0.31h-1.18c-0.17,0-0.31-0.14-0.31-0.31l0,0
			c0-0.17,0.14-0.31,0.31-0.31h1.18C172.88,126.33,173.02,126.47,173.02,126.65z"/>
		<path class="st3" d="M183.21,126.65L183.21,126.65c0,0.17-0.14,0.31-0.31,0.31h-1.18c-0.17,0-0.31-0.14-0.31-0.31l0,0
			c0-0.17,0.14-0.31,0.31-0.31h1.18C183.07,126.33,183.21,126.47,183.21,126.65z"/>
	</g>
	<path class="st3" d="M173.33,168.94h-13.5c-1.11,0-2.01-0.9-2.01-2.01v-22.81c0-1.11,0.9-2.01,2.01-2.01h13.5
		c1.11,0,2.01,0.9,2.01,2.01v22.81C175.34,168.04,174.44,168.94,173.33,168.94z"/>
	<path class="st4" d="M173.28,165.46h-13.41c-0.56,0-1.01-0.45-1.01-1.01v-20.17c0-0.56,0.45-1.01,1.01-1.01h13.41
		c0.56,0,1.01,0.45,1.01,1.01v20.17C174.29,165.01,173.84,165.46,173.28,165.46z"/>
	<path class="st4" d="M167.67,167.56h-2c-0.22,0-0.4-0.18-0.4-0.4l0,0c0-0.22,0.18-0.4,0.4-0.4h2c0.22,0,0.4,0.18,0.4,0.4l0,0
		C168.07,167.39,167.89,167.56,167.67,167.56z"/>
	<path class="st9" d="M194.77,233.77h-6.48c-1.13-4.23-2.88-8.2-5.15-11.82l4.42-4.74c2.26-2.42,2.12-6.22-0.3-8.48l-7.68-7.16
		c-2.42-2.26-6.22-2.12-8.48,0.3l-4.42,4.74c-2.88-1.53-5.95-2.75-9.17-3.61v-6.48c0-3.31-2.69-6-6-6h-10.5c-3.31,0-6,2.69-6,6V203
		c-4.23,1.13-8.2,2.88-11.82,5.15l-4.74-4.42c-2.42-2.26-6.22-2.12-8.48,0.3l-7.16,7.68c-1.26,1.36-1.75,3.14-1.53,4.85
		c9.09,1.62,18.14,5.28,27.46,14.36c4.12-5.12,10.44-8.4,17.53-8.4c12.43,0,22.5,10.07,22.5,22.5c0,3.2-0.67,6.25-1.88,9.01
		c12.1,1.2,24.15-2.39,33.88-9.92v-4.34C200.77,236.46,198.09,233.77,194.77,233.77z"/>
	<path class="st3" d="M117.27,56.02c-2.99,0-5.85-0.59-8.46-1.65c-3.05,3-6.14,7.21-9.08,13.09c-0.85,1.69-1.66,3.25-2.44,4.69
		c2.75,1.43,5.67,2.58,8.73,3.4v6.48c0,3.31,2.69,6,6,6h10.5c3.31,0,6-2.69,6-6v-6.48c4.23-1.13,8.2-2.88,11.82-5.15l4.74,4.42
		c2.42,2.26,6.22,2.12,8.48-0.3l7.16-7.68c2.26-2.42,2.12-6.22-0.3-8.48l-4.68-4.36c-9.86-0.56-17.21-1.5-23.04-4.11
		C128.68,53.69,123.25,56.02,117.27,56.02z"/>
	<path class="st7" d="M195.43,238.02c0-8.75,7.09-15.84,15.84-15.84c1.95,0,3.81,0.37,5.54,1.02c1.3-3.01,2.37-6.2,3.19-9.58
		c0.38-1.57,0.69-3.11,0.96-4.65c-0.58-0.19-1.17-0.37-1.76-0.53v-4.56c0-2.33-1.89-4.22-4.22-4.22h-7.39
		c-2.33,0-4.22,1.89-4.22,4.22v4.56c-2.98,0.8-5.78,2.03-8.32,3.63l-3.34-3.11c-1.71-1.59-4.38-1.5-5.97,0.21l-5.04,5.41
		c-1.59,1.71-1.5,4.38,0.21,5.97l3.34,3.11c-1.08,2.03-1.94,4.19-2.54,6.45h-4.56c-2.33,0-4.22,1.89-4.22,4.22v7.39
		c0,2.33,1.89,4.22,4.22,4.22h4.56c0.61,2.3,1.49,4.48,2.59,6.53c4.75-1.35,9.29-3.43,13.49-6.21
		C196.29,243.86,195.43,241.04,195.43,238.02z"/>
	<circle class="st10" cx="55.15" cy="191.77" r="26"/>
	<g>
		<g>
			<path class="st11" d="M53.26,189.33l-10.33,3.78l10.33,3.75v3.88l-14.76-5.61v-4.03l14.76-5.61V189.33z"/>
		</g>
		<g>
			<path class="st11" d="M56.64,185.49l14.76,5.61v4.03l-14.76,5.61v-3.88l10.33-3.75l-10.33-3.78V185.49z"/>
		</g>
	</g>
	<circle class="st10" cx="72.15" cy="220.77" r="3"/>
</g>
</svg>
