<?xml version="1.0" encoding="UTF-8"?>
<svg xmlns="http://www.w3.org/2000/svg" xmlns:xlink="http://www.w3.org/1999/xlink" width="100px" height="100px" viewBox="0 0 100 100" version="1.1">
<g id="surface566714">
<path style=" stroke:none;fill-rule:nonzero;fill:rgb(36.470588%,25.098039%,21.568627%);fill-opacity:1;" d="M 87.5 36.042969 C 87.5 78.75 50 91.667969 50 91.667969 C 50 91.667969 12.5 78.75 12.5 36.042969 C 12.5 30.832031 12.917969 26.457031 13.332031 22.917969 C 13.957031 17.707031 17.5 13.542969 22.5 12.292969 C 28.957031 10.417969 39.167969 8.332031 50 8.332031 C 60.832031 8.332031 71.042969 10.417969 77.707031 12.292969 C 82.707031 13.542969 86.25 17.917969 86.875 22.917969 C 87.082031 26.457031 87.5 31.042969 87.5 36.042969 Z M 87.5 36.042969 "/>
<path style=" stroke:none;fill-rule:nonzero;fill:rgb(29.803922%,68.627451%,31.372549%);fill-opacity:1;" d="M 50 14.582031 C 60.207031 14.582031 69.792969 16.667969 76.042969 18.332031 C 78.542969 18.957031 80.207031 21.042969 80.625 23.75 C 81.042969 27.707031 81.25 31.875 81.25 36.042969 C 81.25 68.542969 57.292969 81.667969 50 84.792969 C 42.707031 81.457031 18.75 68.332031 18.75 36.042969 C 18.75 31.875 18.957031 27.707031 19.375 23.75 C 19.582031 21.042969 21.457031 18.957031 23.957031 18.332031 C 30.207031 16.667969 39.792969 14.582031 50 14.582031 M 50 8.332031 C 39.167969 8.332031 28.957031 10.417969 22.292969 12.292969 C 17.5 13.542969 13.75 17.917969 13.332031 22.917969 C 12.917969 26.457031 12.5 31.042969 12.5 36.042969 C 12.5 78.75 50 91.667969 50 91.667969 C 50 91.667969 87.5 78.75 87.5 36.042969 C 87.5 30.832031 87.082031 26.457031 86.667969 22.917969 C 86.042969 17.707031 82.5 13.542969 77.5 12.292969 C 71.042969 10.417969 60.832031 8.332031 50 8.332031 Z M 50 8.332031 "/>
<path style=" stroke:none;fill-rule:nonzero;fill:rgb(86.27451%,92.941176%,78.431373%);fill-opacity:1;" d="M 47.917969 58.332031 L 52.082031 58.332031 L 52.082031 75 L 47.917969 75 Z M 47.917969 58.332031 "/>
<path style=" stroke:none;fill-rule:nonzero;fill:rgb(29.803922%,68.627451%,31.372549%);fill-opacity:1;" d="M 50 20.832031 C 50 20.832031 37.5 31.25 37.5 47.917969 C 37.5 58.75 44.375 65.625 47.917969 68.75 L 50 62.5 L 52.082031 68.75 C 55.625 65.625 62.5 58.75 62.5 47.917969 C 62.5 31.25 50 20.832031 50 20.832031 Z M 50 20.832031 "/>
<path style=" stroke:none;fill-rule:nonzero;fill:rgb(50.588235%,78.039216%,51.764706%);fill-opacity:1;" d="M 50 20.832031 C 50 20.832031 37.5 31.25 37.5 47.917969 C 37.5 58.75 44.375 65.625 47.917969 68.75 L 50 62.5 Z M 50 20.832031 "/>
</g>
</svg>
