<?xml version="1.0" encoding="UTF-8"?>
<svg xmlns="http://www.w3.org/2000/svg" xmlns:xlink="http://www.w3.org/1999/xlink" width="100px" height="100px" viewBox="0 0 100 100" version="1.1">
<g id="surface562459">
<path style=" stroke:none;fill-rule:nonzero;fill:rgb(21.960784%,55.686275%,23.529412%);fill-opacity:1;" d="M 35.839844 39.835938 L 25.617188 45.492188 C 25.234375 45.703125 25 46.097656 25 46.519531 L 25 57.835938 C 25 58.261719 25.234375 58.648438 25.617188 58.863281 L 35.84375 64.523438 C 36.226562 64.734375 36.699219 64.734375 37.078125 64.523438 L 47.300781 58.863281 C 47.679688 58.648438 47.917969 58.261719 47.917969 57.835938 L 47.917969 46.519531 C 47.917969 46.097656 47.679688 45.707031 47.296875 45.492188 L 37.078125 39.835938 C 36.886719 39.730469 36.671875 39.679688 36.457031 39.679688 C 36.242188 39.679688 36.03125 39.730469 35.839844 39.835938 M 88.441406 50.027344 L 86.734375 50.96875 C 86.671875 51.003906 86.632812 51.070312 86.632812 51.140625 L 86.632812 53.027344 C 86.632812 53.097656 86.671875 53.164062 86.734375 53.199219 L 88.441406 54.140625 C 88.503906 54.175781 88.582031 54.175781 88.644531 54.140625 L 90.351562 53.199219 C 90.414062 53.164062 90.453125 53.097656 90.453125 53.027344 L 90.453125 51.140625 C 90.453125 51.070312 90.414062 51.003906 90.347656 50.96875 L 88.644531 50.027344 C 88.613281 50.007812 88.578125 50 88.542969 50 C 88.507812 50 88.472656 50.007812 88.441406 50.027344 "/>
<path style=" stroke:none;fill-rule:nonzero;fill:rgb(21.568627%,27.843137%,30.980392%);fill-opacity:1;" d="M 74.480469 27.839844 L 69.503906 25.066406 C 69.347656 24.976562 69.15625 24.980469 69.003906 25.070312 C 68.847656 25.164062 68.753906 25.328125 68.753906 25.507812 L 68.75 42.28125 L 64.160156 39.742188 C 63.96875 39.636719 63.753906 39.582031 63.542969 39.582031 C 63.328125 39.582031 63.113281 39.636719 62.921875 39.742188 L 62.925781 39.742188 L 52.703125 45.398438 C 52.320312 45.609375 52.082031 46 52.082031 46.421875 L 52.082031 57.738281 C 52.082031 58.164062 52.320312 58.550781 52.703125 58.765625 L 62.925781 64.425781 C 63.308594 64.636719 63.78125 64.636719 64.164062 64.425781 L 74.386719 58.765625 C 74.765625 58.554688 75 58.164062 75 57.738281 L 75 28.726562 C 75 28.359375 74.800781 28.019531 74.480469 27.839844 Z M 68.472656 55.121094 L 63.824219 57.695312 C 63.652344 57.789062 63.4375 57.789062 63.265625 57.695312 L 58.617188 55.121094 C 58.441406 55.023438 58.332031 54.847656 58.332031 54.652344 L 58.332031 49.507812 C 58.332031 49.316406 58.441406 49.140625 58.613281 49.042969 L 63.261719 46.472656 C 63.347656 46.421875 63.445312 46.398438 63.542969 46.398438 C 63.640625 46.398438 63.734375 46.425781 63.824219 46.472656 L 68.46875 49.042969 C 68.644531 49.140625 68.75 49.320312 68.75 49.511719 L 68.75 54.65625 C 68.75 54.847656 68.644531 55.023438 68.472656 55.121094 Z M 68.472656 55.121094 "/>
<path style=" stroke:none;fill-rule:nonzero;fill:rgb(18.039216%,49.019608%,19.607843%);fill-opacity:1;" d="M 35.839844 39.835938 L 25 57.835938 C 25 58.261719 25.234375 58.648438 25.617188 58.863281 L 35.84375 64.523438 C 36.226562 64.734375 36.699219 64.734375 37.078125 64.523438 L 47.917969 46.519531 C 47.917969 46.097656 47.679688 45.707031 47.296875 45.492188 L 37.078125 39.835938 C 36.886719 39.730469 36.671875 39.679688 36.457031 39.679688 C 36.242188 39.679688 36.03125 39.730469 35.839844 39.835938 "/>
<path style=" stroke:none;fill-rule:nonzero;fill:rgb(29.803922%,68.627451%,31.372549%);fill-opacity:1;" d="M 35.839844 39.835938 L 25.617188 45.492188 C 25.234375 45.703125 25 46.097656 25 46.519531 L 35.839844 64.523438 C 36.222656 64.734375 36.695312 64.734375 37.078125 64.523438 L 47.300781 58.863281 C 47.679688 58.648438 47.917969 58.261719 47.917969 57.835938 L 37.078125 39.835938 C 36.886719 39.730469 36.671875 39.679688 36.457031 39.679688 C 36.242188 39.679688 36.03125 39.730469 35.839844 39.835938 "/>
<path style=" stroke:none;fill-rule:nonzero;fill:rgb(21.568627%,27.843137%,30.980392%);fill-opacity:1;" d="M 99.382812 45.398438 L 89.160156 39.742188 C 88.96875 39.636719 88.753906 39.582031 88.542969 39.582031 C 88.328125 39.582031 88.113281 39.636719 87.921875 39.742188 L 87.925781 39.742188 L 77.703125 45.398438 C 77.320312 45.609375 77.082031 46.007812 77.082031 46.445312 L 77.082031 57.71875 C 77.082031 58.152344 77.320312 58.554688 77.703125 58.765625 L 87.925781 64.425781 C 88.308594 64.640625 88.777344 64.640625 89.164062 64.425781 L 93.878906 61.816406 C 94.308594 61.578125 94.304688 60.957031 93.871094 60.722656 L 83.613281 55.121094 C 83.441406 55.023438 83.332031 54.84375 83.332031 54.648438 L 83.332031 49.511719 C 83.332031 49.320312 83.4375 49.140625 83.605469 49.050781 L 88.261719 46.476562 L 88.257812 46.476562 C 88.347656 46.425781 88.441406 46.402344 88.539062 46.402344 C 88.636719 46.402344 88.734375 46.429688 88.820312 46.476562 L 93.476562 49.050781 C 93.644531 49.144531 93.746094 49.320312 93.746094 49.511719 L 93.746094 53.703125 C 93.746094 53.882812 93.84375 54.050781 94 54.140625 C 94.15625 54.226562 94.347656 54.226562 94.503906 54.136719 L 99.5 51.234375 C 99.808594 51.054688 100 50.726562 100 50.367188 L 100 46.449219 C 100 46.011719 99.761719 45.609375 99.382812 45.398438 Z M 22.296875 45.398438 L 12.078125 39.742188 C 11.886719 39.636719 11.671875 39.582031 11.457031 39.582031 C 11.246094 39.582031 11.03125 39.636719 10.839844 39.742188 L 0.617188 45.398438 C 0.238281 45.609375 0 46.007812 0 46.445312 L 0 61.996094 C 0 62.175781 0.0976562 62.34375 0.253906 62.433594 C 0.410156 62.519531 0.601562 62.519531 0.757812 62.429688 L 5.753906 59.527344 C 6.058594 59.351562 6.25 59.019531 6.25 58.660156 L 6.25 49.507812 C 6.25 49.316406 6.355469 49.140625 6.519531 49.046875 L 11.175781 46.472656 C 11.265625 46.425781 11.359375 46.402344 11.457031 46.402344 C 11.554688 46.402344 11.652344 46.425781 11.738281 46.472656 L 16.394531 49.050781 C 16.5625 49.140625 16.667969 49.320312 16.667969 49.511719 L 16.667969 58.664062 C 16.667969 59.019531 16.855469 59.351562 17.167969 59.53125 L 22.164062 62.433594 C 22.320312 62.523438 22.511719 62.523438 22.667969 62.433594 C 22.820312 62.34375 22.917969 62.175781 22.917969 61.996094 L 22.917969 46.449219 C 22.917969 46.011719 22.679688 45.609375 22.296875 45.398438 Z M 22.296875 45.398438 "/>
</g>
</svg>
