<?xml version="1.0" encoding="UTF-8"?>
<svg xmlns="http://www.w3.org/2000/svg" xmlns:xlink="http://www.w3.org/1999/xlink" width="100px" height="100px" viewBox="0 0 100 100" version="1.1">
<g id="surface565908">
<path style=" stroke:none;fill-rule:nonzero;fill:rgb(83.529412%,0%,0%);fill-opacity:1;" d="M 0 31.25 L 100 31.25 L 100 66.667969 L 50 66.667969 L 50 72.917969 L 27.082031 72.917969 L 27.082031 66.667969 L 0 66.667969 Z M 0 31.25 "/>
<path style=" stroke:none;fill-rule:nonzero;fill:rgb(100%,100%,100%);fill-opacity:1;" d="M 6.25 60.417969 L 16.667969 60.417969 L 16.667969 43.75 L 22.917969 43.75 L 22.917969 60.417969 L 27.082031 60.417969 L 27.082031 37.5 L 6.25 37.5 Z M 33.332031 37.5 L 33.332031 66.667969 L 43.75 66.667969 L 43.75 60.417969 L 54.167969 60.417969 L 54.167969 37.5 Z M 50 54.167969 L 43.75 54.167969 L 43.75 43.75 L 50 43.75 Z M 60.417969 37.5 L 60.417969 60.417969 L 70.832031 60.417969 L 70.832031 43.75 L 77.082031 43.75 L 77.082031 60.417969 L 83.332031 60.417969 L 83.332031 43.75 L 89.582031 43.75 L 89.582031 60.417969 L 93.75 60.417969 L 93.75 37.5 Z M 60.417969 37.5 "/>
</g>
</svg>
