<?xml version="1.0" encoding="UTF-8"?>
<svg xmlns="http://www.w3.org/2000/svg" xmlns:xlink="http://www.w3.org/1999/xlink" width="100px" height="100px" viewBox="0 0 100 100" version="1.1">
<g id="surface565916">
<path style=" stroke:none;fill-rule:nonzero;fill:rgb(0.784314%,46.666667%,74.117647%);fill-opacity:1;" d="M 50.097656 10.417969 C 46.859375 10.425781 44.613281 10.710938 41.898438 11.179688 C 33.882812 12.578125 32.421875 15.507812 32.421875 20.910156 L 32.421875 29.167969 L 51.171875 29.167969 L 51.171875 33.332031 L 22.644531 33.332031 C 17.152344 33.332031 12.347656 35.921875 10.824219 42.121094 C 9.105469 49.242188 9.027344 53.699219 10.824219 61.132812 C 12.191406 66.675781 15.195312 70.832031 20.691406 70.832031 L 28.257812 70.832031 L 28.257812 60.199219 C 28.257812 54.019531 33.851562 47.917969 40.265625 47.917969 L 55.339844 47.917969 C 60.597656 47.917969 65.757812 44.039062 65.757812 38.796875 L 65.757812 20.910156 C 65.757812 15.828125 62.089844 12.027344 56.96875 11.175781 C 57.097656 11.164062 53.308594 10.402344 50.097656 10.417969 Z M 39.714844 18.75 C 41.425781 18.75 42.839844 20.160156 42.839844 21.878906 C 42.839844 23.613281 41.425781 25 39.714844 25 C 37.972656 25 36.589844 23.617188 36.589844 21.878906 C 36.589844 20.167969 37.972656 18.75 39.714844 18.75 Z M 39.714844 18.75 "/>
<path style=" stroke:none;fill-rule:nonzero;fill:rgb(100%,75.686275%,2.745098%);fill-opacity:1;" d="M 48.078125 89.582031 C 51.320312 89.574219 53.566406 89.289062 56.277344 88.820312 C 64.296875 87.421875 65.757812 84.492188 65.757812 79.089844 L 65.757812 70.832031 L 47.007812 70.832031 L 47.007812 66.667969 L 75.535156 66.667969 C 81.023438 66.667969 85.832031 64.078125 87.355469 57.878906 C 89.074219 50.757812 89.152344 46.300781 87.355469 38.867188 C 85.988281 33.324219 82.980469 29.167969 77.488281 29.167969 L 69.921875 29.167969 L 69.921875 39.800781 C 69.921875 45.980469 64.324219 52.082031 57.914062 52.082031 L 42.835938 52.082031 C 37.582031 52.082031 32.421875 55.960938 32.421875 61.203125 L 32.421875 79.089844 C 32.421875 84.171875 36.085938 87.972656 41.207031 88.824219 C 41.082031 88.835938 44.867188 89.597656 48.078125 89.582031 Z M 58.464844 81.25 C 56.753906 81.25 55.339844 79.839844 55.339844 78.121094 C 55.339844 76.386719 56.753906 75 58.464844 75 C 60.207031 75 61.589844 76.382812 61.589844 78.121094 C 61.589844 79.832031 60.207031 81.25 58.464844 81.25 Z M 58.464844 81.25 "/>
</g>
</svg>
