<?xml version="1.0" encoding="UTF-8"?>
<svg xmlns="http://www.w3.org/2000/svg" xmlns:xlink="http://www.w3.org/1999/xlink" width="100px" height="100px" viewBox="0 0 100 100" version="1.1">
<g id="surface563390">
<path style="fill:none;stroke-width:2;stroke-linecap:butt;stroke-linejoin:miter;stroke:rgb(12.941176%,58.823529%,95.294118%);stroke-opacity:1;stroke-miterlimit:10;" d="M 24 15 C 11.85 15 2.000625 19.029375 2.000625 24 C 2.000625 28.970625 11.85 33 24 33 C 36.15 33 45.999375 28.970625 45.999375 24 C 45.999375 19.029375 36.15 15 24 15 Z M 24 15 " transform="matrix(2.083333,0,0,2.083333,0,0)"/>
<path style="fill:none;stroke-width:2;stroke-linecap:butt;stroke-linejoin:miter;stroke:rgb(12.941176%,58.823529%,95.294118%);stroke-opacity:1;stroke-miterlimit:10;" d="M 23.999169 15.001311 C 11.848917 15.001456 1.998554 19.030127 1.999522 24.000554 C 1.998866 28.971919 11.849063 33.00171 23.999315 33.001564 C 36.149568 33.001419 45.998993 28.971124 45.998025 24.000697 C 45.999618 19.030956 36.149421 15.001165 23.999169 15.001311 Z M 23.999169 15.001311 " transform="matrix(1.041667,-1.80422,1.80422,1.041667,-18.303074,68.302312)"/>
<path style="fill:none;stroke-width:2;stroke-linecap:butt;stroke-linejoin:miter;stroke:rgb(12.941176%,58.823529%,95.294118%);stroke-opacity:1;stroke-miterlimit:10;" d="M 23.99992 1.999156 C 19.028556 1.999812 14.998261 11.849237 14.998115 23.999489 C 14.99797 36.149742 19.028699 45.998315 23.999125 45.999283 C 28.97049 45.998627 32.998223 36.149888 32.998369 23.999636 C 32.998515 11.849383 28.968723 1.999187 23.99992 1.999156 Z M 23.99992 1.999156 " transform="matrix(1.80422,-1.041667,1.041667,1.80422,-18.301549,31.697688)"/>
<path style=" stroke:none;fill-rule:nonzero;fill:rgb(97.647059%,27.058824%,8.235294%);fill-opacity:1;" d="M 50 41.667969 C 45.398438 41.667969 41.667969 45.398438 41.667969 50 C 41.667969 54.601562 45.398438 58.332031 50 58.332031 C 54.601562 58.332031 58.332031 54.601562 58.332031 50 C 58.332031 45.398438 54.601562 41.667969 50 41.667969 Z M 50 41.667969 "/>
</g>
</svg>
