<?xml version="1.0" encoding="UTF-8"?>
<svg xmlns="http://www.w3.org/2000/svg" xmlns:xlink="http://www.w3.org/1999/xlink" width="100px" height="100px" viewBox="0 0 100 100" version="1.1">
<g id="surface565994">
<path style=" stroke:none;fill-rule:nonzero;fill:rgb(100%,100%,100%);fill-opacity:1;" d="M 91.839844 62.0625 C 91.457031 60.335938 89.890625 58.320312 86.730469 58.320312 C 86.085938 58.320312 85.378906 58.402344 84.574219 58.570312 C 83.101562 58.871094 81.84375 59.019531 80.738281 59.070312 C 89.347656 44.402344 94.9375 24.03125 89.402344 16.957031 C 82.109375 7.640625 72.289062 6.246094 67.085938 6.246094 L 66.597656 6.25 C 64.664062 6.28125 62.652344 6.519531 60.632812 6.957031 L 53.167969 8.570312 C 52.152344 8.441406 51.117188 8.351562 50.039062 8.332031 L 49.625 8.332031 C 46.304688 8.332031 43.277344 9.035156 40.582031 10.359375 L 37.976562 9.332031 C 34.390625 7.917969 29 6.238281 23.667969 6.238281 C 23.367188 6.238281 23.070312 6.242188 22.769531 6.253906 C 17.515625 6.445312 13.003906 8.4375 9.714844 12.019531 C 5.617188 16.488281 3.75 23.027344 4.171875 31.457031 C 4.195312 31.894531 9.292969 75 23.75 75 L 23.800781 75 L 23.933594 74.996094 C 25.8125 74.953125 27.601562 74.199219 29.273438 72.753906 C 30.550781 73.710938 32.203125 74.277344 33.742188 74.503906 C 34.761719 74.742188 36.589844 75.082031 38.78125 75.082031 C 41.457031 75.082031 43.867188 74.535156 45.949219 73.546875 C 45.945312 75.378906 45.933594 77.699219 45.914062 80.667969 L 45.914062 80.824219 L 45.921875 80.980469 C 46.125 83.933594 46.636719 86.601562 47.402344 88.691406 C 49.59375 94.644531 53.375 97.925781 58.050781 97.925781 C 58.246094 97.925781 58.445312 97.921875 58.644531 97.910156 C 62.488281 97.671875 66.386719 95.511719 69.070312 92.132812 C 71.972656 88.476562 72.640625 84.617188 72.898438 81.664062 L 72.917969 81.480469 L 72.917969 72.800781 L 73.132812 72.820312 L 74.039062 72.898438 L 74.128906 72.910156 L 74.214844 72.914062 C 74.472656 72.925781 74.738281 72.929688 75.007812 72.929688 C 78.148438 72.929688 82.011719 72.113281 84.625 70.898438 C 87.121094 69.742188 92.832031 66.558594 91.839844 62.0625 Z M 91.839844 62.0625 "/>
<path style=" stroke:none;fill-rule:nonzero;fill:rgb(0.784314%,46.666667%,74.117647%);fill-opacity:1;" d="M 68.75 70.832031 C 68.75 70.40625 68.773438 70.050781 68.789062 69.65625 C 68.765625 69.132812 68.75 68.75 68.75 68.75 C 68.75 68.75 68.773438 68.730469 68.816406 68.703125 C 69.128906 63.136719 70.664062 60.988281 72.304688 59.765625 C 72.078125 59.449219 71.8125 59.105469 71.566406 58.777344 C 70.871094 57.867188 70.007812 56.738281 69.082031 55.289062 L 68.910156 54.960938 C 68.769531 54.617188 68.433594 54.027344 68.003906 53.253906 C 65.539062 48.796875 60.410156 39.519531 63.921875 33.664062 C 65.457031 31.097656 68.339844 29.617188 72.507812 29.253906 C 70.804688 24.414062 64.425781 12.738281 49.96875 12.5 C 49.964844 12.5 49.960938 12.5 49.957031 12.5 C 37.371094 12.296875 33.234375 23.734375 31.890625 30.566406 C 33.742188 29.78125 35.859375 29.304688 37.796875 29.304688 C 37.828125 29.304688 37.859375 29.304688 37.886719 29.304688 C 42.660156 29.339844 45.941406 31.886719 46.894531 36.292969 C 47.589844 39.523438 47.925781 42.355469 47.917969 44.945312 C 47.898438 50.609375 46.757812 53.585938 45.746094 56.214844 L 45.425781 57.066406 C 45.167969 57.761719 44.894531 58.410156 44.636719 59.019531 C 44.375 59.640625 44.144531 60.191406 43.976562 60.691406 C 44.984375 60.917969 45.773438 61.242188 46.320312 61.480469 L 46.632812 61.617188 C 46.730469 61.660156 46.828125 61.707031 46.917969 61.761719 C 48.683594 62.835938 49.785156 64.488281 50.019531 66.414062 C 50.148438 67.453125 50.128906 74.523438 50.082031 80.695312 C 50.265625 83.371094 50.71875 85.621094 51.320312 87.25 C 52.171875 89.570312 54.300781 94.003906 58.390625 93.746094 C 61.242188 93.570312 63.988281 91.832031 65.808594 89.542969 C 67.761719 87.082031 68.484375 84.359375 68.753906 81.296875 L 68.753906 70.832031 Z M 68.75 70.832031 "/>
<path style=" stroke:none;fill-rule:nonzero;fill:rgb(0.784314%,46.666667%,74.117647%);fill-opacity:1;" d="M 31.488281 60.242188 C 28.128906 56.738281 26.488281 52.019531 27.105469 47.628906 C 27.699219 43.386719 27.363281 39.238281 27.179688 37.007812 C 27.121094 36.261719 27.082031 35.707031 27.082031 35.402344 C 27.082031 35.386719 27.085938 35.371094 27.089844 35.355469 C 27.089844 35.347656 27.085938 35.339844 27.085938 35.332031 C 27.335938 29.039062 29.765625 19.109375 36.445312 13.207031 C 33.191406 11.925781 27.890625 10.234375 22.917969 10.417969 C 15.121094 10.699219 7.574219 16.089844 8.332031 31.25 C 8.617188 36.9375 15.046875 71.046875 23.832031 70.832031 C 25.089844 70.800781 26.394531 69.996094 27.734375 68.382812 C 29.851562 65.835938 31.910156 63.523438 33.375 61.917969 C 32.71875 61.417969 32.085938 60.867188 31.488281 60.242188 Z M 77.132812 30.691406 C 77.164062 31.011719 77.136719 31.285156 77.085938 31.539062 C 77.148438 33.457031 76.945312 35.316406 76.734375 37.117188 C 76.578125 38.441406 76.421875 39.808594 76.378906 41.183594 C 76.332031 42.527344 76.523438 43.855469 76.722656 45.257812 C 77.191406 48.546875 77.679688 52.257812 75.128906 56.585938 C 75.597656 57.203125 76.011719 57.773438 76.339844 58.328125 C 85.945312 42.757812 89.816406 24.242188 86.121094 19.523438 C 80.53125 12.382812 72.792969 10.316406 66.664062 10.417969 C 64.746094 10.449219 63.003906 10.707031 61.511719 11.027344 C 72.085938 16.152344 76.796875 27.136719 77.132812 30.691406 Z M 85.417969 62.648438 C 79.863281 63.792969 77.195312 63.183594 75.898438 62.386719 C 75.691406 62.535156 75.480469 62.664062 75.289062 62.78125 C 74.511719 63.25 73.285156 63.996094 72.984375 68.578125 C 73.160156 68.609375 73.308594 68.628906 73.496094 68.667969 L 74.402344 68.75 C 77.152344 68.875 80.757812 68.105469 82.867188 67.121094 C 87.421875 65.011719 89.902344 61.722656 85.417969 62.648438 Z M 45.882812 66.914062 C 45.804688 66.292969 45.46875 65.792969 44.855469 65.390625 L 44.632812 65.292969 C 43.878906 64.960938 43.027344 64.582031 41.667969 64.582031 L 41.660156 64.582031 C 41.394531 64.605469 41.132812 64.621094 40.867188 64.621094 C 40.757812 64.621094 40.652344 64.609375 40.542969 64.605469 C 39.554688 65.363281 38.152344 65.953125 34.675781 66.667969 C 28.46875 68.246094 32.132812 70.113281 34.515625 70.402344 C 36.820312 70.980469 42.296875 71.683594 45.933594 68.71875 C 45.921875 67.785156 45.90625 67.144531 45.882812 66.914062 Z M 45.882812 66.914062 "/>
<path style=" stroke:none;fill-rule:nonzero;fill:rgb(0.784314%,46.666667%,74.117647%);fill-opacity:1;" d="M 43.085938 38.542969 C 42.476562 39.171875 41.515625 39.722656 40.457031 39.550781 C 38.730469 39.273438 37.410156 37.191406 37.503906 36.410156 C 37.597656 35.632812 39.070312 35.226562 40.792969 35.503906 C 41.390625 35.601562 41.933594 35.769531 42.390625 35.980469 C 41.726562 34.546875 40.519531 33.71875 38.679688 33.515625 C 35.417969 33.152344 31.957031 34.859375 31.261719 35.800781 C 31.277344 36.03125 31.304688 36.324219 31.332031 36.671875 C 31.523438 39.058594 31.882812 43.511719 31.226562 48.207031 C 30.792969 51.300781 32.046875 54.808594 34.492188 57.363281 C 36.070312 59.007812 37.910156 60.050781 39.726562 60.359375 C 39.957031 59.363281 40.371094 58.390625 40.796875 57.390625 C 41.03125 56.835938 41.28125 56.25 41.515625 55.613281 L 41.855469 54.726562 C 42.777344 52.320312 43.730469 49.828125 43.746094 44.925781 C 43.757812 43.042969 43.523438 40.890625 43.085938 38.542969 Z M 72.597656 45.847656 C 72.382812 44.328125 72.160156 42.757812 72.210938 41.050781 C 72.261719 39.503906 72.429688 38.046875 72.597656 36.636719 C 72.726562 35.523438 72.824219 34.457031 72.882812 33.40625 C 70.199219 33.628906 68.414062 34.402344 67.570312 35.714844 C 67.917969 35.597656 68.316406 35.503906 68.753906 35.445312 C 70.609375 35.203125 71.964844 35.738281 72.121094 36.773438 C 72.238281 37.527344 71.597656 38.242188 71.316406 38.515625 C 70.738281 39.074219 70.011719 39.433594 69.269531 39.53125 C 69.136719 39.546875 69.003906 39.554688 68.871094 39.554688 C 68.136719 39.554688 67.433594 39.304688 66.894531 38.929688 C 67.128906 43.042969 70.160156 48.539062 71.648438 51.238281 C 71.96875 51.816406 72.214844 52.273438 72.417969 52.671875 C 73.238281 50.339844 72.933594 48.214844 72.597656 45.847656 Z M 72.597656 45.847656 "/>
</g>
</svg>
